<mxfile host="app.diagrams.net" modified="2024-05-18T03:02:18.095Z" agent="Mozilla/5.0 (Windows NT 10.0; Win64; x64) AppleWebKit/537.36 (KHTML, like Gecko) Chrome/124.0.0.0 Safari/537.36" etag="5j89mYyjYQx9G1nNysDA" version="24.4.2" type="github">
  <diagram id="prtHgNgQTEPvFCAcTncT" name="Page-1">
    <mxGraphModel dx="1434" dy="738" grid="1" gridSize="10" guides="1" tooltips="1" connect="1" arrows="1" fold="1" page="1" pageScale="1" pageWidth="827" pageHeight="1169" math="0" shadow="0">
      <root>
        <mxCell id="0" />
        <mxCell id="1" parent="0" />
        <mxCell id="ZnL0f5P0uoP0PYqxYnmg-3" value="" style="rounded=1;whiteSpace=wrap;html=1;fillColor=#e51400;fontColor=#ffffff;strokeColor=#FFFFFF;" vertex="1" parent="1">
          <mxGeometry x="189" y="400" width="60" height="10" as="geometry" />
        </mxCell>
        <mxCell id="ZnL0f5P0uoP0PYqxYnmg-4" value="" style="rounded=1;whiteSpace=wrap;html=1;rotation=-5;fillColor=#e51400;fontColor=#ffffff;strokeColor=#FFFFFF;" vertex="1" parent="1">
          <mxGeometry x="250" y="397" width="60" height="10" as="geometry" />
        </mxCell>
        <mxCell id="ZnL0f5P0uoP0PYqxYnmg-5" value="" style="rounded=1;whiteSpace=wrap;html=1;rotation=-5;fillColor=#008a00;fontColor=#ffffff;strokeColor=#FFFFFF;" vertex="1" parent="1">
          <mxGeometry x="310" y="391" width="60" height="10" as="geometry" />
        </mxCell>
        <mxCell id="ZnL0f5P0uoP0PYqxYnmg-6" value="" style="rounded=1;whiteSpace=wrap;html=1;rotation=-15;fillColor=#008a00;fontColor=#ffffff;strokeColor=#FFFFFF;" vertex="1" parent="1">
          <mxGeometry x="369" y="381" width="60" height="10" as="geometry" />
        </mxCell>
        <mxCell id="ZnL0f5P0uoP0PYqxYnmg-7" value="" style="rounded=1;whiteSpace=wrap;html=1;rotation=-25;fillColor=#1ba1e2;fontColor=#ffffff;strokeColor=#FFFFFF;" vertex="1" parent="1">
          <mxGeometry x="423" y="361" width="60" height="10" as="geometry" />
        </mxCell>
        <mxCell id="ZnL0f5P0uoP0PYqxYnmg-8" value="" style="rounded=1;whiteSpace=wrap;html=1;rotation=60;direction=south;fillColor=#1ba1e2;fontColor=#ffffff;strokeColor=#FFFFFF;" vertex="1" parent="1">
          <mxGeometry x="500" y="309" width="10" height="60" as="geometry" />
        </mxCell>
        <mxCell id="ZnL0f5P0uoP0PYqxYnmg-21" value="" style="rounded=1;whiteSpace=wrap;html=1;fillColor=#e51400;fontColor=#ffffff;strokeColor=#B20000;" vertex="1" parent="1">
          <mxGeometry x="189" y="520" width="121" height="10" as="geometry" />
        </mxCell>
        <mxCell id="ZnL0f5P0uoP0PYqxYnmg-22" value="" style="rounded=1;whiteSpace=wrap;html=1;rotation=-10;fillColor=#008a00;fontColor=#ffffff;strokeColor=#005700;" vertex="1" parent="1">
          <mxGeometry x="310" y="510" width="121" height="10" as="geometry" />
        </mxCell>
        <mxCell id="ZnL0f5P0uoP0PYqxYnmg-23" value="" style="rounded=1;whiteSpace=wrap;html=1;rotation=-20;fillColor=#1ba1e2;fontColor=#ffffff;strokeColor=#006EAF;" vertex="1" parent="1">
          <mxGeometry x="427" y="478" width="121" height="10" as="geometry" />
        </mxCell>
        <mxCell id="ZnL0f5P0uoP0PYqxYnmg-24" value="A" style="text;strokeColor=none;align=center;fillColor=none;html=1;verticalAlign=middle;whiteSpace=wrap;rounded=0;rotation=270;fontSize=24;fontColor=#000000;" vertex="1" parent="1">
          <mxGeometry x="219.5" y="560" width="60" height="30" as="geometry" />
        </mxCell>
        <mxCell id="ZnL0f5P0uoP0PYqxYnmg-26" value="B" style="text;strokeColor=none;align=center;fillColor=none;html=1;verticalAlign=middle;whiteSpace=wrap;rounded=0;rotation=270;fontSize=24;fontColor=#000000;" vertex="1" parent="1">
          <mxGeometry x="340.5" y="545" width="60" height="30" as="geometry" />
        </mxCell>
        <mxCell id="ZnL0f5P0uoP0PYqxYnmg-28" value="C" style="text;strokeColor=none;align=center;fillColor=none;html=1;verticalAlign=middle;whiteSpace=wrap;rounded=0;rotation=270;fontSize=24;fontColor=#000000;" vertex="1" parent="1">
          <mxGeometry x="470" y="510" width="60" height="30" as="geometry" />
        </mxCell>
        <mxCell id="ZnL0f5P0uoP0PYqxYnmg-29" value="x,y,z,A" style="text;strokeColor=none;align=center;fillColor=none;html=1;verticalAlign=middle;whiteSpace=wrap;rounded=0;rotation=270;fontSize=24;fontColor=#000000;" vertex="1" parent="1">
          <mxGeometry x="150" y="279" width="120" height="30" as="geometry" />
        </mxCell>
        <mxCell id="ZnL0f5P0uoP0PYqxYnmg-30" value="" style="rounded=1;whiteSpace=wrap;html=1;rotation=-30;fillColor=#f0a30a;fontColor=#000000;strokeColor=#BD7000;" vertex="1" parent="1">
          <mxGeometry x="537" y="427" width="121" height="10" as="geometry" />
        </mxCell>
        <mxCell id="ZnL0f5P0uoP0PYqxYnmg-31" value="D" style="text;strokeColor=none;align=center;fillColor=none;html=1;verticalAlign=middle;whiteSpace=wrap;rounded=0;rotation=270;fontSize=24;fontColor=#000000;" vertex="1" parent="1">
          <mxGeometry x="600" y="468" width="60" height="30" as="geometry" />
        </mxCell>
        <mxCell id="ZnL0f5P0uoP0PYqxYnmg-32" value="" style="rounded=1;whiteSpace=wrap;html=1;rotation=50;direction=south;fillColor=#f0a30a;fontColor=#000000;strokeColor=#BD7000;" vertex="1" parent="1">
          <mxGeometry x="549" y="275" width="10" height="60" as="geometry" />
        </mxCell>
        <mxCell id="ZnL0f5P0uoP0PYqxYnmg-33" value="" style="rounded=1;whiteSpace=wrap;html=1;rotation=45;direction=south;fillColor=#f0a30a;fontColor=#000000;strokeColor=#BD7000;" vertex="1" parent="1">
          <mxGeometry x="593" y="236" width="10" height="60" as="geometry" />
        </mxCell>
        <mxCell id="ZnL0f5P0uoP0PYqxYnmg-34" value="x,y,z,A" style="text;strokeColor=none;align=center;fillColor=none;html=1;verticalAlign=middle;whiteSpace=wrap;rounded=0;rotation=270;fontSize=24;fontColor=#000000;" vertex="1" parent="1">
          <mxGeometry x="210" y="275" width="120" height="30" as="geometry" />
        </mxCell>
        <mxCell id="ZnL0f5P0uoP0PYqxYnmg-35" value="x,y,z,B" style="text;strokeColor=none;align=center;fillColor=none;html=1;verticalAlign=middle;whiteSpace=wrap;rounded=0;rotation=270;fontSize=24;fontColor=#000000;" vertex="1" parent="1">
          <mxGeometry x="290" y="260" width="120" height="30" as="geometry" />
        </mxCell>
        <mxCell id="ZnL0f5P0uoP0PYqxYnmg-36" value="x,y,z,B" style="text;strokeColor=none;align=center;fillColor=none;html=1;verticalAlign=middle;whiteSpace=wrap;rounded=0;rotation=270;fontSize=24;fontColor=#000000;" vertex="1" parent="1">
          <mxGeometry x="330" y="245" width="120" height="30" as="geometry" />
        </mxCell>
        <mxCell id="ZnL0f5P0uoP0PYqxYnmg-37" value="x,y,z,D" style="text;strokeColor=none;align=center;fillColor=none;html=1;verticalAlign=middle;whiteSpace=wrap;rounded=0;rotation=270;fontSize=24;fontColor=#000000;" vertex="1" parent="1">
          <mxGeometry x="520" y="150" width="120" height="30" as="geometry" />
        </mxCell>
        <mxCell id="ZnL0f5P0uoP0PYqxYnmg-38" value="x,y,z,C" style="text;strokeColor=none;align=center;fillColor=none;html=1;verticalAlign=middle;whiteSpace=wrap;rounded=0;rotation=270;fontSize=24;fontColor=#000000;" vertex="1" parent="1">
          <mxGeometry x="427" y="206" width="120" height="30" as="geometry" />
        </mxCell>
        <mxCell id="ZnL0f5P0uoP0PYqxYnmg-39" value="&lt;font style=&quot;font-size: 24px;&quot;&gt;.......&lt;/font&gt;" style="text;strokeColor=none;align=center;fillColor=none;html=1;verticalAlign=middle;whiteSpace=wrap;rounded=0;rotation=-10;" vertex="1" parent="1">
          <mxGeometry x="280.5" y="266" width="60" height="30" as="geometry" />
        </mxCell>
        <mxCell id="ZnL0f5P0uoP0PYqxYnmg-40" value="&lt;font style=&quot;font-size: 24px;&quot;&gt;.......&lt;/font&gt;" style="text;strokeColor=none;align=center;fillColor=none;html=1;verticalAlign=middle;whiteSpace=wrap;rounded=0;rotation=-15;" vertex="1" parent="1">
          <mxGeometry x="410" y="230" width="60" height="30" as="geometry" />
        </mxCell>
        <mxCell id="ZnL0f5P0uoP0PYqxYnmg-41" value="&lt;font style=&quot;font-size: 24px;&quot;&gt;.......&lt;/font&gt;" style="text;strokeColor=none;align=center;fillColor=none;html=1;verticalAlign=middle;whiteSpace=wrap;rounded=0;rotation=-30;" vertex="1" parent="1">
          <mxGeometry x="500" y="180" width="60" height="30" as="geometry" />
        </mxCell>
        <mxCell id="ZnL0f5P0uoP0PYqxYnmg-42" value="" style="endArrow=classic;html=1;rounded=0;strokeWidth=8;" edge="1" parent="1">
          <mxGeometry width="50" height="50" relative="1" as="geometry">
            <mxPoint x="440" y="470" as="sourcePoint" />
            <mxPoint x="420" y="410" as="targetPoint" />
          </mxGeometry>
        </mxCell>
      </root>
    </mxGraphModel>
  </diagram>
</mxfile>
